<svg width="34" height="35" viewBox="0 0 34 35" fill="none" xmlns="http://www.w3.org/2000/svg">
<rect width="34" height="35" fill="#F6F6F6"/>
<g clip-path="url(#clip0)">
<rect width="1440" height="5189" transform="translate(-150 -4953)" fill="white"/>
<rect x="-99" y="-327" width="1440" height="563.12" fill="#F8F8F8"/>
<g filter="url(#filter0_d)">
<circle cx="16.8001" cy="17.3805" r="16.7999" fill="#F53838"/>
</g>
<path d="M16.8 0.580566C7.5215 0.580566 0 8.10207 0 17.3806C0 26.6591 7.5215 34.1806 16.8 34.1806C26.0785 34.1806 33.6 26.6591 33.6 17.3806C33.6 8.10207 26.0785 0.580566 16.8 0.580566ZM20.7795 12.1901H18.2543C17.955 12.1901 17.6225 12.5838 17.6225 13.1071V14.9306H20.7813L20.3035 17.5311H17.6225V25.3378H14.6423V17.5311H11.9385V14.9306H14.6423V13.4011C14.6423 11.2066 16.1648 9.42332 18.2543 9.42332H20.7795V12.1901Z" fill="white"/>
</g>
<defs>
<filter id="filter0_d" x="-17.9999" y="-4.41943" width="69.5999" height="69.5999" filterUnits="userSpaceOnUse" color-interpolation-filters="sRGB">
<feFlood flood-opacity="0" result="BackgroundImageFix"/>
<feColorMatrix in="SourceAlpha" type="matrix" values="0 0 0 0 0 0 0 0 0 0 0 0 0 0 0 0 0 0 127 0"/>
<feOffset dy="13"/>
<feGaussianBlur stdDeviation="9"/>
<feColorMatrix type="matrix" values="0 0 0 0 0.0658854 0 0 0 0 0.0730469 0 0 0 0 0.1375 0 0 0 0.08 0"/>
<feBlend mode="normal" in2="BackgroundImageFix" result="effect1_dropShadow"/>
<feBlend mode="normal" in="SourceGraphic" in2="effect1_dropShadow" result="shape"/>
</filter>
<clipPath id="clip0">
<rect width="1440" height="5189" fill="white" transform="translate(-150 -4953)"/>
</clipPath>
</defs>
</svg>
